<svg class="animated" id="freepik_stories-scope" xmlns="http://www.w3.org/2000/svg" viewBox="0 0 500 500" version="1.1" xmlns:xlink="http://www.w3.org/1999/xlink" xmlns:svgjs="http://svgjs.com/svgjs"><style>svg#freepik_stories-scope:not(.animated) .animable {opacity: 0;}svg#freepik_stories-scope.animated #freepik--Flag--inject-5 {animation: 1.5s 1 forwards cubic-bezier(.36,-0.01,.5,1.38) fadeIn,3s Infinite  linear heartbeat;animation-delay: 0s,1.5s;}            @keyframes fadeIn {                0% {                    opacity: 0;                }                100% {                    opacity: 1;                }            }                    @keyframes heartbeat {                0% {                    transform: scale(1);                }                10% {                    transform: scale(1.1);                }                30% {                    transform: scale(1);                }                40% {                    transform: scale(1);                }                50% {                    transform: scale(1.1);                }                60% {                    transform: scale(1);                }                100% {                    transform: scale(1);                }            }        </style><g id="freepik--Clouds--inject-5" class="animable" style="transform-origin: 240.985px 242.283px;"><path d="M221.19,149.51s-14-23.37-27.37-25.37-14,14.68-19.36,18-12.68-6.67-20.7-3.34-5.34,9.35-10,12-5.34-4.67-15.35-.67-13.35,11.35-13.35,11.35H231.87Z" style="fill: none; stroke: rgb(38, 50, 56); stroke-linecap: round; stroke-linejoin: round; transform-origin: 173.465px 142.727px;" id="elqhup4ffrsjc" class="animable"></path><path d="M398.75,294.36s-11.35-18.69-19.36-16-9.34,13.35-14.68,14-8-6.68-12.69-4-6.67,8.68-11.34,9.35-5.34-2.67-10-1.34-8,7.35-8,7.35h92.79s-.13-9.54-6-11.35C405.12,291,402.09,293.69,398.75,294.36Z" style="fill: none; stroke: rgb(38, 50, 56); stroke-linecap: round; stroke-linejoin: round; transform-origin: 369.075px 290.908px;" id="el3xsxjfrhvgz" class="animable"></path><path d="M434.06,77.48s-11.35-18.69-19.36-16-9.35,13.35-14.69,14-8-6.68-12.68-4-6.67,8.68-11.35,9.35-5.34-2.67-10-1.34-8,7.35-8,7.35h92.79s-.13-9.54-6-11.35C440.43,74.15,437.4,76.81,434.06,77.48Z" style="fill: none; stroke: rgb(38, 50, 56); stroke-linecap: round; stroke-linejoin: round; transform-origin: 404.375px 74.0276px;" id="elffdfd5dtxv8" class="animable"></path><path d="M107.28,414s-11.35-18.69-19.36-16-9.34,13.35-14.68,14-8-6.68-12.69-4-6.67,8.68-11.35,9.35-5.34-2.67-10-1.34-8,7.34-8,7.34H124s-.13-9.53-6-11.34C113.65,410.65,110.62,413.31,107.28,414Z" style="fill: none; stroke: rgb(38, 50, 56); stroke-linecap: round; stroke-linejoin: round; transform-origin: 77.6px 410.543px;" id="eldjwflbyq6zo" class="animable"></path></g><g id="freepik--Flag--inject-5" class="animable" style="transform-origin: 286.34px 186.235px;"><line x1="243.54" y1="215.59" x2="243.54" y2="142.87" style="fill: none; stroke: rgb(38, 50, 56); stroke-linecap: round; stroke-linejoin: round; transform-origin: 243.54px 179.23px;" id="elqszk38o60b" class="animable"></line><path d="M291,219.87l-.1-21.76,4.73,14S291.28,217.85,291,219.87Z" style="fill: rgb(38, 50, 56); stroke: rgb(38, 50, 56); stroke-linecap: round; stroke-linejoin: round; transform-origin: 293.265px 208.99px;" id="els3w24mugj0j" class="animable"></path><path d="M295.65,212.12s-6.58,6.08-4,9.88,7.85.25,18.49.25,19,7.35,19,7.35V194.13s-.51-4.3-7.34-6.84-23.82-.5-26.86-5.32-1-12.92-1-12.92-5.57,11.15-3.55,19.76S295.65,212.12,295.65,212.12Z" style="fill: rgb(255, 255, 255); stroke: rgb(38, 50, 56); stroke-linecap: round; stroke-linejoin: round; transform-origin: 309.544px 199.325px;" id="el4ggrmyg064u" class="animable"></path><path d="M243.72,145.34A18.9,18.9,0,0,0,255,150.48c17,1.94,20.19.59,28.29,2.36s12.41,8.87,12.41,8.87v50.41s-2.53-7.6-13.17-8.62-20.26-.25-28.88-.76-9.88-2-9.88-2Z" style="fill: rgb(255, 255, 255); stroke: rgb(38, 50, 56); stroke-linecap: round; stroke-linejoin: round; transform-origin: 269.71px 178.73px;" id="elqy1d7o8upxf" class="animable"></path><path d="M294.55,199.12V183.78c-.51-.73-1.05-1.46-1.62-2.16l-3.46-4.1a31,31,0,0,1-2.09-2.91,6.22,6.22,0,0,1-.91-3.38,2.6,2.6,0,0,1,.6-1.77,1.61,1.61,0,0,1,1.77-.35,2.78,2.78,0,0,1,1.67,1.15,5.53,5.53,0,0,1,.75,2.1,20.66,20.66,0,0,1,.25,2.81l3,.51v-8.19c-.23-.27-.49-.54-.76-.8a10.88,10.88,0,0,0-3.69-2.19v-3.71l-2-.64v3.72q-3.75-.9-6,.58t-2.23,5.41a11.53,11.53,0,0,0,.56,3.72,13.88,13.88,0,0,0,1.52,3.15,36.05,36.05,0,0,0,2.17,3l3.55,4.17a23.87,23.87,0,0,1,2.69,3.75,7.81,7.81,0,0,1,1,3.87,3,3,0,0,1-.48,1.77c-.32.46-.91.55-1.78.27a3.59,3.59,0,0,1-1.83-1.27,6.09,6.09,0,0,1-1.06-2.42,18.55,18.55,0,0,1-.44-3.62l-5.88-.86a16.12,16.12,0,0,0,2.29,8.44,12.26,12.26,0,0,0,6.42,4.79v3.88l2,.63v-3.92A7.2,7.2,0,0,0,294.55,199.12Z" style="fill: rgb(30, 33, 168); transform-origin: 287.189px 181.64px;" id="elwer6j7yv9jf" class="animable"></path></g><g id="freepik--Mountain--inject-5" class="animable" style="transform-origin: 236.33px 346.88px;"><polygon points="406.53 472.25 329.16 350.22 307.9 360.21 243.54 215.59 167.95 347.59 156.14 329.71 66.54 472.25 406.53 472.25" style="fill: rgb(30, 33, 168); transform-origin: 236.535px 343.92px;" id="elzvdhywznuu" class="animable"></polygon><polyline points="62.38 477.13 156.14 329.71 167.95 347.59 243.54 215.59 307.9 360.21 329.16 350.22 410.28 478.17" style="fill: none; stroke: rgb(38, 50, 56); stroke-linecap: round; stroke-linejoin: round; transform-origin: 236.33px 346.88px;" id="elrtgg13ao0b" class="animable"></polyline><polygon points="156.14 329.71 165.62 355.7 160.86 380.87 168.34 364.54 173.1 372.71 162.9 459.1 183.99 378.83 174.46 361.14 175.14 337.33 167.95 347.59 156.14 329.71" style="fill: rgb(38, 50, 56); stroke: rgb(38, 50, 56); stroke-linecap: round; stroke-linejoin: round; transform-origin: 170.065px 394.405px;" id="elo88phxvqncm" class="animable"></polygon><polygon points="259.49 251.62 289.43 372.03 281.26 374.07 271.74 347.54 268.34 356.38 273.1 400.6 266.98 406.04 271.06 472.02 308.47 422.37 329.39 464.06 372.28 442.34 401.8 464.37 329.16 350.22 307.9 360.21 259.49 251.62" style="fill: rgb(38, 50, 56); stroke: rgb(38, 50, 56); stroke-linecap: round; stroke-linejoin: round; transform-origin: 330.645px 361.82px;" id="el8houi460pfp" class="animable"></polygon></g><g id="freepik--Sight--inject-5" class="animable" style="transform-origin: 253.37px 246.615px;"><g id="el2eb39crpajw"><circle cx="253.38" cy="246.59" r="18.86" style="fill: none; stroke: rgb(38, 50, 56); stroke-linecap: round; stroke-linejoin: round; transform-origin: 253.38px 246.59px; transform: rotate(-76.61deg);" class="animable"></circle></g><line x1="147.32" y1="246.59" x2="234.52" y2="246.59" style="fill: none; stroke: rgb(38, 50, 56); stroke-linecap: round; stroke-linejoin: round; transform-origin: 190.92px 246.59px;" id="eleyhjksvgfv" class="animable"></line><line x1="61.62" y1="246.59" x2="147.32" y2="246.59" style="fill: none; stroke: rgb(38, 50, 56); stroke-linecap: round; stroke-linejoin: round; stroke-width: 5px; transform-origin: 104.47px 246.59px;" id="elulukj4vap9c" class="animable"></line><line x1="164.26" y1="240.73" x2="164.26" y2="252.88" style="fill: none; stroke: rgb(38, 50, 56); stroke-linecap: round; stroke-linejoin: round; transform-origin: 164.26px 246.805px;" id="els6uqc4o20mn" class="animable"></line><line x1="173.66" y1="240.73" x2="173.66" y2="252.88" style="fill: none; stroke: rgb(38, 50, 56); stroke-linecap: round; stroke-linejoin: round; transform-origin: 173.66px 246.805px;" id="el4tn01x1t0w9" class="animable"></line><line x1="183.06" y1="240.73" x2="183.06" y2="252.88" style="fill: none; stroke: rgb(38, 50, 56); stroke-linecap: round; stroke-linejoin: round; transform-origin: 183.06px 246.805px;" id="ellssu1yeu9ra" class="animable"></line><line x1="192.46" y1="240.73" x2="192.46" y2="252.88" style="fill: none; stroke: rgb(38, 50, 56); stroke-linecap: round; stroke-linejoin: round; transform-origin: 192.46px 246.805px;" id="elnhblgf3qppo" class="animable"></line><line x1="201.86" y1="240.73" x2="201.86" y2="252.88" style="fill: none; stroke: rgb(38, 50, 56); stroke-linecap: round; stroke-linejoin: round; transform-origin: 201.86px 246.805px;" id="elcdzn7227bj9" class="animable"></line><line x1="211.25" y1="240.73" x2="211.25" y2="252.88" style="fill: none; stroke: rgb(38, 50, 56); stroke-linecap: round; stroke-linejoin: round; transform-origin: 211.25px 246.805px;" id="elqeqm6d1gelk" class="animable"></line><line x1="253.38" y1="140.53" x2="253.38" y2="227.73" style="fill: none; stroke: rgb(38, 50, 56); stroke-linecap: round; stroke-linejoin: round; transform-origin: 253.38px 184.13px;" id="el6a74eguykzs" class="animable"></line><line x1="253.38" y1="54.83" x2="253.38" y2="140.53" style="fill: none; stroke: rgb(38, 50, 56); stroke-linecap: round; stroke-linejoin: round; stroke-width: 5px; transform-origin: 253.38px 97.68px;" id="el14aaee834rf" class="animable"></line><line x1="259.24" y1="157.47" x2="247.09" y2="157.47" style="fill: none; stroke: rgb(38, 50, 56); stroke-linecap: round; stroke-linejoin: round; transform-origin: 253.165px 157.47px;" id="elnn1b344bqr" class="animable"></line><line x1="259.24" y1="166.87" x2="247.09" y2="166.87" style="fill: none; stroke: rgb(38, 50, 56); stroke-linecap: round; stroke-linejoin: round; transform-origin: 253.165px 166.87px;" id="el8j0pw7sb2bh" class="animable"></line><line x1="259.24" y1="176.27" x2="247.09" y2="176.27" style="fill: none; stroke: rgb(38, 50, 56); stroke-linecap: round; stroke-linejoin: round; transform-origin: 253.165px 176.27px;" id="elhmm70pkhaj" class="animable"></line><line x1="259.24" y1="185.67" x2="247.09" y2="185.67" style="fill: none; stroke: rgb(38, 50, 56); stroke-linecap: round; stroke-linejoin: round; transform-origin: 253.165px 185.67px;" id="elsswmsak0rpq" class="animable"></line><line x1="259.24" y1="195.07" x2="247.09" y2="195.07" style="fill: none; stroke: rgb(38, 50, 56); stroke-linecap: round; stroke-linejoin: round; transform-origin: 253.165px 195.07px;" id="elsazy6ytqhu8" class="animable"></line><line x1="259.24" y1="204.47" x2="247.09" y2="204.47" style="fill: none; stroke: rgb(38, 50, 56); stroke-linecap: round; stroke-linejoin: round; transform-origin: 253.165px 204.47px;" id="el3qbx6h7dhpc" class="animable"></line><line x1="359.44" y1="246.59" x2="272.24" y2="246.59" style="fill: none; stroke: rgb(38, 50, 56); stroke-linecap: round; stroke-linejoin: round; transform-origin: 315.84px 246.59px;" id="el2uq8bf67a02" class="animable"></line><line x1="445.14" y1="246.59" x2="359.44" y2="246.59" style="fill: none; stroke: rgb(38, 50, 56); stroke-linecap: round; stroke-linejoin: round; stroke-width: 5px; transform-origin: 402.29px 246.59px;" id="eldd2j233bo4t" class="animable"></line><line x1="342.5" y1="252.46" x2="342.5" y2="240.3" style="fill: none; stroke: rgb(38, 50, 56); stroke-linecap: round; stroke-linejoin: round; transform-origin: 342.5px 246.38px;" id="elnt6wcvz5hm" class="animable"></line><line x1="333.1" y1="252.46" x2="333.1" y2="240.3" style="fill: none; stroke: rgb(38, 50, 56); stroke-linecap: round; stroke-linejoin: round; transform-origin: 333.1px 246.38px;" id="elpzhq3hx6sj" class="animable"></line><line x1="323.7" y1="252.46" x2="323.7" y2="240.3" style="fill: none; stroke: rgb(38, 50, 56); stroke-linecap: round; stroke-linejoin: round; transform-origin: 323.7px 246.38px;" id="elf1ke4at5rj" class="animable"></line><line x1="314.3" y1="252.46" x2="314.3" y2="240.3" style="fill: none; stroke: rgb(38, 50, 56); stroke-linecap: round; stroke-linejoin: round; transform-origin: 314.3px 246.38px;" id="ellxyerfjdabj" class="animable"></line><line x1="304.9" y1="252.46" x2="304.9" y2="240.3" style="fill: none; stroke: rgb(38, 50, 56); stroke-linecap: round; stroke-linejoin: round; transform-origin: 304.9px 246.38px;" id="el6vrtqby0gu" class="animable"></line><line x1="295.5" y1="252.46" x2="295.5" y2="240.3" style="fill: none; stroke: rgb(38, 50, 56); stroke-linecap: round; stroke-linejoin: round; transform-origin: 295.5px 246.38px;" id="el8nro8g9ta9v" class="animable"></line><line x1="253.38" y1="352.65" x2="253.38" y2="265.45" style="fill: none; stroke: rgb(38, 50, 56); stroke-linecap: round; stroke-linejoin: round; transform-origin: 253.38px 309.05px;" id="elvbcluffvvzn" class="animable"></line><line x1="253.38" y1="438.35" x2="253.38" y2="352.65" style="fill: none; stroke: rgb(38, 50, 56); stroke-linecap: round; stroke-linejoin: round; stroke-width: 5px; transform-origin: 253.38px 395.5px;" id="elrcm1ntta66f" class="animable"></line><line x1="247.51" y1="335.71" x2="259.67" y2="335.71" style="fill: none; stroke: rgb(38, 50, 56); stroke-linecap: round; stroke-linejoin: round; transform-origin: 253.59px 335.71px;" id="elqlpi8i8f4is" class="animable"></line><line x1="247.51" y1="326.31" x2="259.67" y2="326.31" style="fill: none; stroke: rgb(38, 50, 56); stroke-linecap: round; stroke-linejoin: round; transform-origin: 253.59px 326.31px;" id="elswqs838j1jm" class="animable"></line><line x1="247.51" y1="316.91" x2="259.67" y2="316.91" style="fill: none; stroke: rgb(38, 50, 56); stroke-linecap: round; stroke-linejoin: round; transform-origin: 253.59px 316.91px;" id="el88ad5f0sxp" class="animable"></line><line x1="247.51" y1="307.51" x2="259.67" y2="307.51" style="fill: none; stroke: rgb(38, 50, 56); stroke-linecap: round; stroke-linejoin: round; transform-origin: 253.59px 307.51px;" id="el49q8w4lnxeo" class="animable"></line><line x1="247.51" y1="298.11" x2="259.67" y2="298.11" style="fill: none; stroke: rgb(38, 50, 56); stroke-linecap: round; stroke-linejoin: round; transform-origin: 253.59px 298.11px;" id="eljfyqw8g56xc" class="animable"></line><line x1="247.51" y1="288.72" x2="259.67" y2="288.72" style="fill: none; stroke: rgb(38, 50, 56); stroke-linecap: round; stroke-linejoin: round; transform-origin: 253.59px 288.72px;" id="el82uc9o6z447" class="animable"></line><path d="M253.38,37.23C137.75,37.23,44,131,44,246.59S137.75,456,253.38,456s209.36-93.73,209.36-209.36S369,37.23,253.38,37.23Zm0,388.76a179.4,179.4,0,1,1,179.4-179.4A179.4,179.4,0,0,1,253.38,426Z" style="fill: rgb(38, 50, 56); transform-origin: 253.37px 246.615px;" id="elfwqwjw9biv" class="animable"></path></g><defs>     <filter id="active" height="200%">         <feMorphology in="SourceAlpha" result="DILATED" operator="dilate" radius="2"></feMorphology>                <feFlood flood-color="#32DFEC" flood-opacity="1" result="PINK"></feFlood>        <feComposite in="PINK" in2="DILATED" operator="in" result="OUTLINE"></feComposite>        <feMerge>            <feMergeNode in="OUTLINE"></feMergeNode>            <feMergeNode in="SourceGraphic"></feMergeNode>        </feMerge>    </filter>    <filter id="hover" height="200%">        <feMorphology in="SourceAlpha" result="DILATED" operator="dilate" radius="2"></feMorphology>                <feFlood flood-color="#ff0000" flood-opacity="0.5" result="PINK"></feFlood>        <feComposite in="PINK" in2="DILATED" operator="in" result="OUTLINE"></feComposite>        <feMerge>            <feMergeNode in="OUTLINE"></feMergeNode>            <feMergeNode in="SourceGraphic"></feMergeNode>        </feMerge>            <feColorMatrix type="matrix" values="0   0   0   0   0                0   1   0   0   0                0   0   0   0   0                0   0   0   1   0 "></feColorMatrix>    </filter></defs></svg>